<?xml version="1.0" standalone="no"?>
<!DOCTYPE svg PUBLIC "-//W3C//DTD SVG 20010904//EN"
 "http://www.w3.org/TR/2001/REC-SVG-20010904/DTD/svg10.dtd">
<svg version="1.0" xmlns="http://www.w3.org/2000/svg"
 width="60.000000pt" height="60.000000pt" viewBox="0 0 60.000000 60.000000"
 preserveAspectRatio="xMidYMid meet">

<g transform="translate(0.000000,60.000000) scale(0.100000,-0.100000)"
fill="#000000" stroke="none">
<path d="M100 460 c0 -53 2 -60 20 -60 11 0 20 -7 20 -15 0 -8 -9 -15 -20 -15
-18 0 -20 -7 -20 -65 0 -58 2 -65 20 -65 13 0 20 -7 20 -20 0 -13 -7 -20 -20
-20 -18 0 -20 -7 -20 -55 l0 -55 205 0 205 0 0 55 c0 48 -2 55 -20 55 -13 0
-20 7 -20 20 0 13 7 20 20 20 18 0 20 7 20 65 0 58 -2 65 -20 65 -11 0 -20 7
-20 15 0 8 9 15 20 15 18 0 20 7 20 60 l0 60 -205 0 -205 0 0 -60z m252 -118
c12 -10 17 -28 16 -57 l0 -42 -43 2 c-52 1 -75 18 -75 54 0 62 54 85 102 43z
m-122 2 c0 -10 -6 -14 -15 -11 -25 10 -25 -10 0 -21 30 -14 33 -47 5 -62 -25
-14 -60 -4 -60 16 0 11 6 13 19 9 29 -9 34 10 6 23 -24 11 -33 40 -18 55 3 4
19 7 35 7 19 0 28 -5 28 -16z m190 -24 c0 -33 3 -40 20 -40 11 0 20 -7 20 -15
0 -11 -11 -15 -40 -15 l-40 0 0 55 c0 48 2 55 20 55 17 0 20 -7 20 -40z"/>
<path d="M283 314 c-3 -8 1 -23 10 -31 14 -14 15 -14 14 3 -1 12 4 19 15 18
10 -1 14 4 11 12 -7 19 -42 18 -50 -2z"/>
</g>
</svg>
